# xmcd CD database file
#
# Track frame offsets:
#	150
#	13748
#	40872
#	54607
#	66859
#	80798
#	96075
#	107467
#	124526
#	135038
#	152748
#	164721
#	178273
#	189767
#	203449
#	220386
#	242073
#	263200
#
# Disc length: 3672 seconds
#
# Revision: 0
# Processed by: cddbd v1.5.2PL0 Copyright (c) Steve Scherf et al.
# Submitted via: CDex 1.70beta2
#
DISCID=f30e5612
DTITLE=Art Tatum - Flying Home CD 2
DYEAR=2004
DGENRE=Jazz
TTITLE0=How High The Moon
TTITLE1=All The Things You Are
TTITLE2=Deep Purple
TTITLE3=Dardanelle
TTITLE4=Dixieland Band
TTITLE5=Chloe
TTITLE6=Battery Bounce
TTITLE7=Boogie
TTITLE8=Honeysuckle Rose
TTITLE9=Humoresque
TTITLE10=Aunt Hagar's Blues
TTITLE11=Cherokee
TTITLE12=I Ain't Got Nobody
TTITLE13=Hallelujah!
TTITLE14=Can't We Be Friends?
TTITLE15=Have You Met Miss Jones
TTITLE16=Dark Eyes
TTITLE17=Beautiful Love
EXTD=YEAR: 2004
EXTT0=
EXTT1=
EXTT2=
EXTT3=
EXTT4=
EXTT5=
EXTT6=
EXTT7=
EXTT8=
EXTT9=
EXTT10=
EXTT11=
EXTT12=
EXTT13=
EXTT14=
EXTT15=
EXTT16=
EXTT17=
PLAYORDER=
